#define cf96a30cc6e5439b91476f3a00081d87g1E8W5vSD9zO2lPz_width 50
#define cf96a30cc6e5439b91476f3a00081d87g1E8W5vSD9zO2lPz_height 28
static char cf96a30cc6e5439b91476f3a00081d87g1E8W5vSD9zO2lPz_bits[] = {
  0x00, 0x00, 0x00, 0x00, 0x00, 0x00, 0x00, 0x00, 0x00, 0x00, 0x00, 0x00, 
  0x00, 0x00, 0x00, 0x00, 0x00, 0x00, 0x00, 0x00, 0x00, 0x00, 0x00, 0x00, 
  0x00, 0x00, 0x00, 0x00, 0x00, 0x00, 0x00, 0x00, 0x00, 0x00, 0x00, 0x00, 
  0x00, 0x00, 0x00, 0x00, 0x00, 0x00, 0x00, 0xF8, 0x03, 0x00, 0x00, 0x00, 
  0x00, 0x00, 0x00, 0x00, 0x00, 0x00, 0x00, 0x00, 0x00, 0xF8, 0x03, 0x00, 
  0x00, 0x00, 0x00, 0x00, 0x00, 0x00, 0x00, 0x00, 0x00, 0x00, 0x80, 0xFA, 
  0x2B, 0x00, 0x00, 0x00, 0x00, 0x80, 0xAA, 0x2A, 0x00, 0x24, 0x00, 0x00, 
  0x80, 0xFA, 0x2B, 0x02, 0x52, 0x00, 0x00, 0x80, 0xAA, 0x2A, 0x07, 0x89, 
  0x00, 0x00, 0x80, 0xFA, 0x2B, 0x82, 0x04, 0x01, 0x00, 0x80, 0xAA, 0x2A, 
  0x40, 0x02, 0x02, 0x00, 0x80, 0xFA, 0x2B, 0x20, 0x01, 0x04, 0x00, 0x00, 
  0x00, 0x00, 0x00, 0x00, 0x00, 0x00, 0x00, 0xF8, 0x03, 0x00, 0x00, 0x00, 
  0x00, 0x00, 0x00, 0x00, 0x00, 0x00, 0x00, 0x00, 0x00, 0xF8, 0x03, 0x00, 
  0x00, 0x00, 0x00, 0x00, 0x00, 0x00, 0x00, 0x00, 0x00, 0x00, 0x00, 0x00, 
  0x00, 0x00, 0x00, 0x00, 0x00, 0x00, 0x00, 0x00, 0x00, 0x00, 0x00, 0x00, 
  0x00, 0x00, 0x00, 0x00, 0x00, 0x00, 0x00, 0x00, 0x00, 0x00, 0x00, 0x00, 
  0x00, 0x00, 0x00, 0x00, 0x00, 0x00, 0x00, 0x00, 0x00, 0x00, 0x00, 0x00, 
  0x00, 0x00, 0x00, 0x00, };
